<mxfile host="app.diagrams.net" agent="Mozilla/5.0 (Windows NT 10.0; Win64; x64) AppleWebKit/537.36 (KHTML, like Gecko) Chrome/135.0.0.0 Safari/537.36" version="26.2.9">
  <diagram name="第 1 页" id="_1zPVB5c98NWnY9CR11A">
    <mxGraphModel dx="1428" dy="777" grid="1" gridSize="10" guides="1" tooltips="1" connect="1" arrows="1" fold="1" page="1" pageScale="1" pageWidth="827" pageHeight="1169" math="0" shadow="0">
      <root>
        <mxCell id="0" />
        <mxCell id="1" parent="0" />
        <mxCell id="BG4EgRBK9ABt37wprHKa-1" value="&lt;font style=&quot;font-size: 35px;&quot;&gt;&amp;nbsp; &amp;nbsp; 应用层&amp;nbsp; &amp;nbsp;&lt;/font&gt;" style="rounded=0;whiteSpace=wrap;html=1;align=left;" vertex="1" parent="1">
          <mxGeometry x="60" y="30" width="740" height="120" as="geometry" />
        </mxCell>
        <mxCell id="BG4EgRBK9ABt37wprHKa-3" value="&lt;font style=&quot;font-size: 23px;&quot;&gt;Vue-cli&lt;/font&gt;" style="rounded=0;whiteSpace=wrap;html=1;" vertex="1" parent="1">
          <mxGeometry x="230" y="55" width="160" height="70" as="geometry" />
        </mxCell>
        <mxCell id="BG4EgRBK9ABt37wprHKa-6" value="&lt;font style=&quot;font-size: 35px;&quot;&gt;&amp;nbsp; &amp;nbsp; 服务层&amp;nbsp; &amp;nbsp;&lt;/font&gt;" style="rounded=0;whiteSpace=wrap;html=1;align=left;" vertex="1" parent="1">
          <mxGeometry x="60" y="240" width="750" height="130" as="geometry" />
        </mxCell>
        <mxCell id="BG4EgRBK9ABt37wprHKa-7" value="&lt;font style=&quot;font-size: 21px;&quot;&gt;登录注册&lt;/font&gt;" style="rounded=0;whiteSpace=wrap;html=1;" vertex="1" parent="1">
          <mxGeometry x="260" y="250" width="130" height="50" as="geometry" />
        </mxCell>
        <mxCell id="BG4EgRBK9ABt37wprHKa-8" value="&lt;font style=&quot;font-size: 21px;&quot;&gt;医疗信息共享&lt;/font&gt;" style="rounded=0;whiteSpace=wrap;html=1;" vertex="1" parent="1">
          <mxGeometry x="430" y="250" width="130" height="50" as="geometry" />
        </mxCell>
        <mxCell id="BG4EgRBK9ABt37wprHKa-9" value="&lt;font style=&quot;font-size: 21px;&quot;&gt;药品溯源&lt;/font&gt;" style="rounded=0;whiteSpace=wrap;html=1;" vertex="1" parent="1">
          <mxGeometry x="600" y="250" width="130" height="50" as="geometry" />
        </mxCell>
        <mxCell id="BG4EgRBK9ABt37wprHKa-10" value="&lt;font style=&quot;font-size: 21px;&quot;&gt;IPFS交互&lt;/font&gt;" style="rounded=0;whiteSpace=wrap;html=1;" vertex="1" parent="1">
          <mxGeometry x="600" y="310" width="130" height="50" as="geometry" />
        </mxCell>
        <mxCell id="BG4EgRBK9ABt37wprHKa-11" value="&lt;font style=&quot;font-size: 21px;&quot;&gt;区块链交互&lt;/font&gt;" style="rounded=0;whiteSpace=wrap;html=1;" vertex="1" parent="1">
          <mxGeometry x="430" y="310" width="130" height="50" as="geometry" />
        </mxCell>
        <mxCell id="BG4EgRBK9ABt37wprHKa-12" value="&lt;font style=&quot;font-size: 21px;&quot;&gt;属性鉴权中心&lt;/font&gt;" style="rounded=0;whiteSpace=wrap;html=1;" vertex="1" parent="1">
          <mxGeometry x="260" y="310" width="130" height="50" as="geometry" />
        </mxCell>
        <mxCell id="BG4EgRBK9ABt37wprHKa-15" value="" style="shape=flexArrow;endArrow=classic;html=1;rounded=0;exitX=0.322;exitY=1;exitDx=0;exitDy=0;exitPerimeter=0;width=17;endSize=8.44;" edge="1" parent="1">
          <mxGeometry width="50" height="50" relative="1" as="geometry">
            <mxPoint x="490" y="150" as="sourcePoint" />
            <mxPoint x="490" y="240" as="targetPoint" />
          </mxGeometry>
        </mxCell>
        <mxCell id="BG4EgRBK9ABt37wprHKa-20" value="&lt;font style=&quot;font-size: 13px;&quot;&gt;HTTP&lt;/font&gt;" style="edgeLabel;html=1;align=center;verticalAlign=middle;resizable=0;points=[];" vertex="1" connectable="0" parent="BG4EgRBK9ABt37wprHKa-15">
          <mxGeometry x="-0.2222" y="3" relative="1" as="geometry">
            <mxPoint x="-3" as="offset" />
          </mxGeometry>
        </mxCell>
        <mxCell id="BG4EgRBK9ABt37wprHKa-17" value="" style="shape=flexArrow;endArrow=classic;html=1;rounded=0;exitX=0.322;exitY=1;exitDx=0;exitDy=0;exitPerimeter=0;width=17;endSize=8.44;" edge="1" parent="1">
          <mxGeometry width="50" height="50" relative="1" as="geometry">
            <mxPoint x="660" y="150" as="sourcePoint" />
            <mxPoint x="660" y="240" as="targetPoint" />
          </mxGeometry>
        </mxCell>
        <mxCell id="BG4EgRBK9ABt37wprHKa-21" value="&lt;font style=&quot;font-size: 13px;&quot;&gt;HTTP&lt;/font&gt;" style="edgeLabel;html=1;align=center;verticalAlign=middle;resizable=0;points=[];" vertex="1" connectable="0" parent="BG4EgRBK9ABt37wprHKa-17">
          <mxGeometry x="-0.2444" relative="1" as="geometry">
            <mxPoint as="offset" />
          </mxGeometry>
        </mxCell>
        <mxCell id="BG4EgRBK9ABt37wprHKa-18" value="" style="shape=flexArrow;endArrow=classic;html=1;rounded=0;exitX=0.322;exitY=1;exitDx=0;exitDy=0;exitPerimeter=0;width=17;endSize=8.44;" edge="1" parent="1">
          <mxGeometry width="50" height="50" relative="1" as="geometry">
            <mxPoint x="324.5" y="150" as="sourcePoint" />
            <mxPoint x="324.5" y="240" as="targetPoint" />
          </mxGeometry>
        </mxCell>
        <mxCell id="BG4EgRBK9ABt37wprHKa-19" value="&lt;font style=&quot;font-size: 14px;&quot;&gt;HTTP&lt;/font&gt;" style="edgeLabel;html=1;align=center;verticalAlign=middle;resizable=0;points=[];" vertex="1" connectable="0" parent="BG4EgRBK9ABt37wprHKa-18">
          <mxGeometry x="-0.3111" relative="1" as="geometry">
            <mxPoint as="offset" />
          </mxGeometry>
        </mxCell>
        <mxCell id="BG4EgRBK9ABt37wprHKa-24" value="&lt;font style=&quot;font-size: 35px;&quot;&gt;&amp;nbsp; &amp;nbsp; 存储层&amp;nbsp; &amp;nbsp;&lt;/font&gt;" style="rounded=0;whiteSpace=wrap;html=1;align=left;" vertex="1" parent="1">
          <mxGeometry x="60" y="450" width="750" height="130" as="geometry" />
        </mxCell>
        <mxCell id="BG4EgRBK9ABt37wprHKa-25" value="&lt;font style=&quot;font-size: 23px;&quot;&gt;区块链&lt;/font&gt;" style="rounded=0;whiteSpace=wrap;html=1;" vertex="1" parent="1">
          <mxGeometry x="250" y="480" width="150" height="60" as="geometry" />
        </mxCell>
        <mxCell id="BG4EgRBK9ABt37wprHKa-26" value="&lt;font style=&quot;font-size: 23px;&quot;&gt;IPFS&lt;/font&gt;" style="rounded=0;whiteSpace=wrap;html=1;" vertex="1" parent="1">
          <mxGeometry x="450" y="480" width="150" height="60" as="geometry" />
        </mxCell>
        <mxCell id="BG4EgRBK9ABt37wprHKa-27" value="&lt;span style=&quot;font-size: 23px;&quot;&gt;MySQL&lt;/span&gt;" style="rounded=0;whiteSpace=wrap;html=1;" vertex="1" parent="1">
          <mxGeometry x="640" y="480" width="150" height="60" as="geometry" />
        </mxCell>
        <mxCell id="BG4EgRBK9ABt37wprHKa-28" value="" style="shape=flexArrow;endArrow=classic;html=1;rounded=0;width=18;endSize=9.67;startSize=9.67;" edge="1" parent="1">
          <mxGeometry width="50" height="50" relative="1" as="geometry">
            <mxPoint x="325" y="370" as="sourcePoint" />
            <mxPoint x="325" y="450" as="targetPoint" />
          </mxGeometry>
        </mxCell>
        <mxCell id="BG4EgRBK9ABt37wprHKa-29" value="&lt;font style=&quot;font-size: 14px;&quot;&gt;Fabric SDK&lt;/font&gt;" style="edgeLabel;html=1;align=center;verticalAlign=middle;resizable=0;points=[];" vertex="1" connectable="0" parent="BG4EgRBK9ABt37wprHKa-28">
          <mxGeometry x="-0.3111" relative="1" as="geometry">
            <mxPoint as="offset" />
          </mxGeometry>
        </mxCell>
        <mxCell id="BG4EgRBK9ABt37wprHKa-31" value="" style="shape=flexArrow;endArrow=classic;html=1;rounded=0;width=18;endSize=9.67;startSize=9.67;" edge="1" parent="1">
          <mxGeometry width="50" height="50" relative="1" as="geometry">
            <mxPoint x="680" y="370" as="sourcePoint" />
            <mxPoint x="680" y="450" as="targetPoint" />
          </mxGeometry>
        </mxCell>
        <mxCell id="BG4EgRBK9ABt37wprHKa-32" value="&lt;font style=&quot;font-size: 14px;&quot;&gt;Fabric Client&lt;/font&gt;" style="edgeLabel;html=1;align=center;verticalAlign=middle;resizable=0;points=[];" vertex="1" connectable="0" parent="BG4EgRBK9ABt37wprHKa-31">
          <mxGeometry x="-0.3111" relative="1" as="geometry">
            <mxPoint as="offset" />
          </mxGeometry>
        </mxCell>
      </root>
    </mxGraphModel>
  </diagram>
</mxfile>
